<svg xmlns="http://www.w3.org/2000/svg" width="800" height="480" viewBox="0 0 800 480">
  <defs>
    <linearGradient id="bg" x1="0%" y1="0%" x2="100%" y2="100%">
      <stop offset="0%" stop-color="#0d2520"/>
      <stop offset="100%" stop-color="#061210"/>
    </linearGradient>
    <pattern id="grid" width="40" height="40" patternUnits="userSpaceOnUse">
      <path d="M 40 0 L 0 0 0 40" fill="none" stroke="#00d4b8" stroke-width="0.3" opacity="0.15"/>
    </pattern>
  </defs>
  <rect width="800" height="480" fill="url(#bg)"/>
  <rect width="800" height="480" fill="url(#grid)"/>

  <!-- Flow nodes -->
  <rect x="60" y="180" width="120" height="48" rx="8" fill="#0a1e1a" stroke="#00d4b8" stroke-width="1" stroke-opacity="0.5"/>
  <text x="120" y="200" text-anchor="middle" font-family="monospace" font-size="10" fill="#00d4b8" opacity="0.9">Facebook Ads</text>
  <text x="120" y="216" text-anchor="middle" font-family="monospace" font-size="8" fill="#00d4b8" opacity="0.5">Lead Source</text>

  <line x1="180" y1="204" x2="230" y2="204" stroke="#00d4b8" stroke-width="1" stroke-opacity="0.4" stroke-dasharray="4 3"/>
  <polygon points="230,200 238,204 230,208" fill="#00d4b8" opacity="0.5"/>

  <rect x="240" y="180" width="120" height="48" rx="8" fill="#0a1e1a" stroke="#00d4b8" stroke-width="1" stroke-opacity="0.5"/>
  <text x="300" y="200" text-anchor="middle" font-family="monospace" font-size="10" fill="#00d4b8" opacity="0.9">GoHighLevel</text>
  <text x="300" y="216" text-anchor="middle" font-family="monospace" font-size="8" fill="#00d4b8" opacity="0.5">CRM Entry</text>

  <line x1="360" y1="204" x2="410" y2="204" stroke="#00d4b8" stroke-width="1" stroke-opacity="0.4" stroke-dasharray="4 3"/>
  <polygon points="410,200 418,204 410,208" fill="#00d4b8" opacity="0.5"/>

  <rect x="420" y="180" width="120" height="48" rx="8" fill="#0a1e1a" stroke="#00d4b8" stroke-width="1" stroke-opacity="0.5"/>
  <text x="480" y="200" text-anchor="middle" font-family="monospace" font-size="10" fill="#00d4b8" opacity="0.9">ChatGPT</text>
  <text x="480" y="216" text-anchor="middle" font-family="monospace" font-size="8" fill="#00d4b8" opacity="0.5">AI Follow-up</text>

  <line x1="540" y1="204" x2="590" y2="204" stroke="#00d4b8" stroke-width="1" stroke-opacity="0.4" stroke-dasharray="4 3"/>
  <polygon points="590,200 598,204 590,208" fill="#00d4b8" opacity="0.5"/>

  <rect x="600" y="180" width="140" height="48" rx="8" fill="#0a1e1a" stroke="#00d4b8" stroke-width="1" stroke-opacity="0.5"/>
  <text x="670" y="200" text-anchor="middle" font-family="monospace" font-size="10" fill="#00d4b8" opacity="0.9">Auto Booking</text>
  <text x="670" y="216" text-anchor="middle" font-family="monospace" font-size="8" fill="#00d4b8" opacity="0.5">0 Manual Steps</text>

  <!-- Metric badges -->
  <rect x="60" y="310" width="160" height="36" rx="18" fill="#00d4b8" fill-opacity="0.1" stroke="#00d4b8" stroke-width="0.8" stroke-opacity="0.4"/>
  <text x="140" y="333" text-anchor="middle" font-family="monospace" font-size="11" fill="#00d4b8">25-30 hrs saved/week</text>

  <rect x="240" y="310" width="140" height="36" rx="18" fill="#00d4b8" fill-opacity="0.1" stroke="#00d4b8" stroke-width="0.8" stroke-opacity="0.4"/>
  <text x="310" y="333" text-anchor="middle" font-family="monospace" font-size="11" fill="#00d4b8">100% automated</text>

  <rect x="400" y="310" width="160" height="36" rx="18" fill="#00d4b8" fill-opacity="0.1" stroke="#00d4b8" stroke-width="0.8" stroke-opacity="0.4"/>
  <text x="480" y="333" text-anchor="middle" font-family="monospace" font-size="11" fill="#00d4b8">3x faster response</text>

  <!-- Label -->
  <text x="400" y="100" text-anchor="middle" font-family="monospace" font-size="20" fill="#00d4b8" opacity="0.8" letter-spacing="2">REAL ESTATE LEAD PIPELINE</text>
  <text x="400" y="128" text-anchor="middle" font-family="monospace" font-size="11" fill="#00d4b8" opacity="0.4">N8N · GoHighLevel · Make.com · ChatGPT</text>
</svg>
